# xmcd CD database file
#
# Track frame offsets:
#	150
#	32432
#	73872
#	109660
#	118265
#	167885
#	199467
#
# Disc length: 3147 seconds
#
# Revision: 0
# Processed by: cddbd v1.5.2PL0 Copyright (c) Steve Scherf et al.
# Submitted via: CDex 1.51
#
DISCID=650c4907
DTITLE=Tyrone Henderson and David Bindman - Strawman Dance
DYEAR=1994
DGENRE=Jazz
TTITLE0=Grandmama
TTITLE1=Dark Times in the City
TTITLE2=Strawman Dance
TTITLE3=Sun Ra Dedication
TTITLE4=Critical Vision
TTITLE5=Corn Pipes and Dark Brown Dancing Feet
TTITLE6=Ba-Lue Bolivar Ba-Lues-Are - Ain't Seen Nothing Like This Before
EXTD=YEAR: 1994
EXTT0=
EXTT1=
EXTT2=
EXTT3=
EXTT4=
EXTT5=
EXTT6=
PLAYORDER=
